<svg width="54" height="45" viewBox="0 0 54 45" fill="none" xmlns="http://www.w3.org/2000/svg">
<path d="M26.1086 36.4132V44.874L6.24298 32.8903L12.5667 27.755L26.1086 36.4132Z" fill="#FFF4F4"/>
<path d="M8.71262 15.0728L11.8313 26.7999L5.56902 31.8809L0.900024 12.6125L8.71262 15.0728Z" fill="#FFF4F4"/>
<path d="M12.8301 0.144928L14.9871 8.79683L9.07397 13.9321L1.19409 11.4543L12.8301 0.144928Z" fill="#FFF4F4"/>
<path d="M26.1086 5.14886V12.7981L16.194 8.57051L14.0556 0.0022583L26.1086 5.14886Z" fill="#FFF4F4"/>
<path d="M39.3993 -0.00415039L37.3582 8.50476L27.3341 12.7979V5.14867L39.3993 -0.00415039Z" fill="#FFF4F4"/>
<path d="M52.806 11.4543L44.7973 13.944L38.5658 8.71375L40.6242 0.127411L52.806 11.4543Z" fill="#FFF4F4"/>
<path d="M53.1 12.6187L47.898 31.8871L41.7274 26.7343L45.1529 15.0909L53.1 12.6187Z" fill="#FFF4F4"/>
<path d="M43.958 14.8218L40.5018 26.5608L26.721 35.3738L13.051 26.6382L9.90741 14.8094L15.7834 9.70405L26.4757 14.26C26.5493 14.29 26.6352 14.3081 26.721 14.3081C26.8069 14.3081 26.8863 14.29 26.9664 14.26L37.7816 9.62662L43.958 14.8218Z" fill="#FFF4F4"/>
<path d="M47.2055 32.8841L27.3341 44.874V36.4132L40.9798 27.6833L47.2055 32.8841Z" fill="#FFF4F4"/>
</svg>
