<svg width="50" height="49" viewBox="0 0 50 49" fill="none" xmlns="http://www.w3.org/2000/svg">
<path d="M39.9706 24.8253L25.6034 38.7297C25.5929 38.7399 25.5873 38.7533 25.5873 38.7679V48.4361C25.7684 48.3624 25.9379 48.2608 26.084 48.1193L49.6728 25.2899C49.8189 25.1485 49.93 24.9845 50.0056 24.8092H40.01C39.995 24.8097 39.9811 24.8151 39.9706 24.8253Z" fill="white"/>
<path d="M23.9221 48.1194C24.0682 48.2608 24.2377 48.3625 24.4188 48.4361V38.7679C24.4188 38.7534 24.4127 38.74 24.4027 38.7298L10.035 24.8254C10.0244 24.8152 10.0106 24.8098 9.99555 24.8098H0C0.0761196 24.9851 0.186687 25.1491 0.332815 25.2905L23.9221 48.1194Z" fill="white"/>
<path d="M11.1268 24.2823L24.9633 37.6731C24.985 37.6941 25.02 37.6941 25.0416 37.6731L38.8782 24.2823C38.8999 24.2613 38.8999 24.2275 38.8782 24.2065L25.0422 10.8157C25.0205 10.7947 24.9855 10.7947 24.9639 10.8157L11.1268 24.2065C11.1051 24.2275 11.1051 24.2613 11.1268 24.2823Z" fill="white"/>
<path d="M10.035 23.6634L24.4022 9.75904C24.4127 9.74883 24.4183 9.73538 24.4183 9.72087V0.0467529C24.2371 0.12042 24.0677 0.227427 23.9215 0.368847L0.332815 23.1983C0.186687 23.3397 0.0761196 23.5037 0 23.679H9.99555C10.0106 23.679 10.0244 23.6731 10.035 23.6634Z" fill="white"/>
<path d="M26.0834 0.369366C25.9373 0.227945 25.7678 0.120402 25.5867 0.0472717V9.72085C25.5867 9.73536 25.5928 9.74881 25.6028 9.75902L39.97 23.6634C39.9805 23.6736 39.9944 23.679 40.0094 23.679H50.0055C49.9294 23.5037 49.8188 23.3397 49.6727 23.1982L26.0834 0.369366Z" fill="white"/>
</svg>
