<svg width="43" height="58" viewBox="0 0 43 58" fill="none" xmlns="http://www.w3.org/2000/svg">
<path d="M23.1352 57.9234L42.9881 29.9103C43.0186 29.8674 42.9868 29.809 42.9331 29.809H31.1558C31.126 29.809 31.0995 29.8283 31.0915 29.8565L23.0153 57.8689C22.9948 57.9394 23.0922 57.9837 23.1352 57.9234Z" fill="white"/>
<path d="M29.4848 29.809H13.5153C13.4709 29.809 13.4391 29.8501 13.451 29.8911L21.4358 57.5861C21.4537 57.6496 21.5464 57.6496 21.565 57.5861L29.5497 29.8911C29.561 29.8494 29.5292 29.809 29.4848 29.809Z" fill="white"/>
<path d="M19.8648 57.9234C19.9078 57.9837 20.0046 57.9401 19.9847 57.8695L11.9085 29.8565C11.9005 29.8283 11.874 29.809 11.8442 29.809H0.066857C0.013188 29.809 -0.018616 29.8674 0.0118627 29.9103L19.8648 57.9234Z" fill="white"/>
<path d="M11.8442 28.3829C11.874 28.3829 11.9005 28.3637 11.9085 28.3355L19.9847 0.323027C20.0052 0.252491 19.9078 0.208887 19.8648 0.269163L0.0118627 28.2816C-0.018616 28.3246 0.013188 28.3829 0.066857 28.3829H11.8442Z" fill="white"/>
<path d="M13.5153 28.3829H29.4848C29.5292 28.3829 29.561 28.3418 29.5491 28.3008L21.5643 0.605778C21.5464 0.542296 21.4537 0.542296 21.4351 0.605778L13.451 28.3008C13.4391 28.3425 13.4709 28.3829 13.5153 28.3829Z" fill="white"/>
<path d="M31.1558 28.3829H42.9325C42.9861 28.3829 43.0179 28.3245 42.9874 28.2816L23.1352 0.268491C23.0922 0.208215 22.9954 0.251819 23.0153 0.322355L31.0915 28.3354C31.0994 28.3636 31.1259 28.3829 31.1558 28.3829Z" fill="white"/>
</svg>
