<svg width="19" height="19" viewBox="0 0 19 19" fill="none" xmlns="http://www.w3.org/2000/svg">
<path d="M4.25379 19H0.313839V6.31495H4.25379V19ZM2.2817 4.5846C1.0221 4.5846 0 3.54129 0 2.2817C0 1.67655 0.240392 1.09619 0.668293 0.668293C1.09619 0.240392 1.67655 0 2.2817 0C2.88684 0 3.4672 0.240392 3.8951 0.668293C4.323 1.09619 4.56339 1.67655 4.56339 2.2817C4.56339 3.54129 3.54129 4.5846 2.2817 4.5846ZM18.9958 19H15.0643V12.825C15.0643 11.3533 15.0346 9.46607 13.0158 9.46607C10.9674 9.46607 10.6536 11.065 10.6536 12.719V19H6.71786V6.31495H10.4967V8.04531H10.5518C11.0777 7.04866 12.3627 5.99687 14.2797 5.99687C18.2663 5.99687 19 8.6221 19 12.0319V19H18.9958Z" fill="#F4F4F5"/>
</svg>
